# xmcd CD database file
#
# Track frame offsets:
#	150
#	16500
#	27607
#	45110
#	54275
#	66035
#	84300
#	97600
#	116440
#	136375
#	160492
#	186840
#	197430
#	209370
#
# Disc length: 3037 seconds
#
# Revision: 3
# Processed by: cddbd v1.5.2PL0 Copyright (c) Steve Scherf et al.
# Submitted via: CDex 1.70beta3
#
DISCID=a50bdb0e
DTITLE=The Flowerpot Men - Let's Go To San Francisco
DYEAR=1900
DGENRE=Blues
TTITLE0=Let's Go To San Francisco (Part 1)
TTITLE1=Let's Go To San Francisco (Part 2)
TTITLE2=A Walk In The Sky
TTITLE3=Am I Loosing You
TTITLE4=You Can Never Be Wrong
TTITLE5=Man Without A Woman
TTITLE6=Busy Doing Nothin'
TTITLE7=White Dove
TTITLE8=Journey's End
TTITLE9=Mythological Sunday
TTITLE10=Blow Away
TTITLE11=Piccolo Man
TTITLE12=Let's Go Back To San Francisco
TTITLE13=Silicon City
EXTD=
EXTT0=
EXTT1=
EXTT2=
EXTT3=
EXTT4=
EXTT5=
EXTT6=
EXTT7=
EXTT8=
EXTT9=
EXTT10=
EXTT11=
EXTT12=
EXTT13=
PLAYORDER=
